<svg width="19" height="18" viewBox="0 0 19 18" fill="none" xmlns="http://www.w3.org/2000/svg">
<path d="M8.125 15.875C8.125 16.1222 8.05169 16.3639 7.91434 16.5695C7.77699 16.775 7.58176 16.9352 7.35335 17.0298C7.12495 17.1245 6.87361 17.1492 6.63114 17.101C6.38866 17.0528 6.16593 16.9337 5.99112 16.7589C5.8163 16.5841 5.69725 16.3613 5.64902 16.1189C5.60079 15.8764 5.62554 15.6251 5.72015 15.3966C5.81476 15.1682 5.97498 14.973 6.18054 14.8357C6.3861 14.6983 6.62777 14.625 6.875 14.625C7.20652 14.625 7.52446 14.7567 7.75888 14.9911C7.9933 15.2255 8.125 15.5435 8.125 15.875ZM15 14.625C14.7528 14.625 14.5111 14.6983 14.3055 14.8357C14.1 14.973 13.9398 15.1682 13.8452 15.3966C13.7505 15.6251 13.7258 15.8764 13.774 16.1189C13.8222 16.3613 13.9413 16.5841 14.1161 16.7589C14.2909 16.9337 14.5137 17.0528 14.7561 17.101C14.9986 17.1492 15.2499 17.1245 15.4784 17.0298C15.7068 16.9352 15.902 16.775 16.0393 16.5695C16.1767 16.3639 16.25 16.1222 16.25 15.875C16.25 15.5435 16.1183 15.2255 15.8839 14.9911C15.6495 14.7567 15.3315 14.625 15 14.625ZM18.7273 4.79219L16.7242 12.0016C16.6141 12.3954 16.3785 12.7425 16.0533 12.9904C15.728 13.2383 15.3308 13.3733 14.9219 13.375H7.2C6.78987 13.3748 6.39105 13.2405 6.06437 12.9925C5.7377 12.7446 5.50108 12.3965 5.39062 12.0016L2.65 2.125H1.25C1.08424 2.125 0.925268 2.05915 0.808058 1.94194C0.690848 1.82473 0.625 1.66576 0.625 1.5C0.625 1.33424 0.690848 1.17527 0.808058 1.05806C0.925268 0.940848 1.08424 0.875 1.25 0.875H3.125C3.26164 0.874974 3.39453 0.919728 3.50331 1.00241C3.6121 1.08509 3.69079 1.20115 3.72734 1.33281L4.46797 4H18.125C18.2214 3.99998 18.3164 4.02224 18.4027 4.06504C18.4891 4.10783 18.5643 4.17001 18.6226 4.24671C18.681 4.32341 18.7208 4.41255 18.7389 4.50718C18.7571 4.6018 18.7531 4.69935 18.7273 4.79219ZM17.3023 5.25H4.81562L6.59766 11.6672C6.63421 11.7988 6.7129 11.9149 6.82169 11.9976C6.93047 12.0803 7.06336 12.125 7.2 12.125H14.9219C15.0585 12.125 15.1914 12.0803 15.3002 11.9976C15.409 11.9149 15.4877 11.7988 15.5242 11.6672L17.3023 5.25Z" fill="#343330"/>
</svg>
