<svg width="16" height="18" viewBox="0 0 16 18" fill="none" xmlns="http://www.w3.org/2000/svg">
<path d="M11.125 16.5C11.125 16.6658 11.0592 16.8247 10.942 16.9419C10.8248 17.0592 10.6658 17.125 10.5 17.125H5.50002C5.33426 17.125 5.17529 17.0592 5.05808 16.9419C4.94087 16.8247 4.87502 16.6658 4.87502 16.5C4.87502 16.3342 4.94087 16.1753 5.05808 16.0581C5.17529 15.9408 5.33426 15.875 5.50002 15.875H10.5C10.6658 15.875 10.8248 15.9408 10.942 16.0581C11.0592 16.1753 11.125 16.3342 11.125 16.5ZM15.3321 14C15.2236 14.191 15.0662 14.3497 14.876 14.4595C14.6858 14.5694 14.4697 14.6265 14.25 14.625H1.75002C1.53029 14.6247 1.31451 14.5665 1.12444 14.4562C0.934374 14.346 0.776732 14.1875 0.667405 13.9969C0.558078 13.8063 0.500928 13.5903 0.501717 13.3705C0.502506 13.1508 0.561205 12.9351 0.671898 12.7453C1.10549 11.9984 1.75002 9.88594 1.75002 7.125C1.75002 5.4674 2.4085 3.87769 3.58061 2.70558C4.75271 1.53348 6.34242 0.875 8.00002 0.875C9.65763 0.875 11.2473 1.53348 12.4194 2.70558C13.5915 3.87769 14.25 5.4674 14.25 7.125C14.25 9.88516 14.8953 11.9984 15.3289 12.7453C15.4407 12.9354 15.4999 13.1518 15.5003 13.3723C15.5007 13.5929 15.4424 13.8095 15.3313 14H15.3321ZM14.25 13.375C13.6461 12.3383 13 9.94141 13 7.125C13 5.79892 12.4732 4.52715 11.5356 3.58947C10.5979 2.65178 9.32611 2.125 8.00002 2.125C6.67394 2.125 5.40217 2.65178 4.46449 3.58947C3.52681 4.52715 3.00002 5.79892 3.00002 7.125C3.00002 9.94219 2.35315 12.3391 1.75002 13.375H14.25Z" fill="#343330"/>
</svg>
