<svg width="19" height="20" viewBox="0 0 19 20" fill="none" xmlns="http://www.w3.org/2000/svg">
<path d="M12.4116 12.1423C12.5154 12.0732 12.6349 12.0311 12.7591 12.0198C12.8834 12.0085 13.0085 12.0284 13.1231 12.0776L17.5444 14.0586C17.6934 14.1223 17.8177 14.2325 17.8989 14.3728C17.98 14.513 18.0135 14.6758 17.9944 14.8367C17.8487 15.9252 17.3127 16.9237 16.486 17.6466C15.6593 18.3695 14.5982 18.7675 13.5 18.7667C10.1185 18.7667 6.87548 17.4234 4.48439 15.0323C2.0933 12.6412 0.750001 9.39821 0.750001 6.0167C0.749161 4.91852 1.1472 3.85741 1.87009 3.0307C2.59298 2.204 3.59152 1.66798 4.68 1.52233C4.84091 1.50321 5.00368 1.53672 5.14395 1.61784C5.28422 1.69896 5.39444 1.82333 5.45813 1.97233L7.43906 6.39733C7.48774 6.51098 7.50756 6.6349 7.49676 6.75807C7.48596 6.88123 7.44489 6.99981 7.37719 7.10327L5.37375 9.48545C5.30269 9.59269 5.26066 9.71653 5.25179 9.84486C5.24291 9.9732 5.26749 10.1016 5.32313 10.2176C6.09844 11.8048 7.73906 13.4258 9.33094 14.1936C9.44755 14.249 9.57658 14.273 9.70531 14.2633C9.83404 14.2536 9.95801 14.2105 10.065 14.1383L12.4116 12.1423Z" stroke="#252525" stroke-width="1.5" stroke-linecap="round" stroke-linejoin="round"/>
</svg>
