<svg width="54" height="54" viewBox="0 0 54 54" fill="none" xmlns="http://www.w3.org/2000/svg">
<path fill-rule="evenodd" clip-rule="evenodd" d="M54.0091 26.9999C54.0091 41.9141 41.9187 54.0045 27.0045 54.0045C12.0903 54.0045 0 41.9141 0 26.9999C0 12.0857 12.0903 -0.00463867 27.0045 -0.00463867C41.9187 -0.00463867 54.0091 12.0857 54.0091 26.9999ZM45.89 34.5824C45.8865 33.6086 45.6997 32.6773 45.3617 31.8217C45.3607 31.8191 45.3646 31.817 45.3662 31.8193L45.3696 31.8242C45.3717 31.8271 45.3763 31.8246 45.3749 31.8213C45.1555 31.2911 44.9144 30.7725 44.6515 30.2653C44.6385 30.24 44.6253 30.2147 44.6119 30.1895C44.6041 30.1749 44.5964 30.1604 44.5886 30.1458L44.5752 30.121L44.5747 30.12C43.5923 28.2635 42.3244 26.5819 40.8295 25.1327C39.4289 26.5295 37.8439 29.1903 36.9509 32.5106C36.0164 35.9846 35.8428 40.1686 37.4218 44.364C40.4683 43.4999 43.032 41.4876 44.616 38.824C45.0072 38.2402 45.3133 37.5984 45.5319 36.9153C45.7635 36.1873 45.89 35.4109 45.89 34.6061V34.5824ZM37.1928 44.4265C35.6014 40.183 35.7795 35.9552 36.7226 32.4492C37.6225 29.1035 39.2221 26.404 40.6588 24.9692C40.4108 24.7344 40.1568 24.506 39.897 24.2841C39.5744 24.0087 39.2435 23.744 38.9031 23.4887C38.5273 23.2074 38.142 22.9392 37.7473 22.6851C37.0015 22.2041 36.2215 21.7727 35.412 21.3933C34.5505 20.9903 33.6558 20.6476 32.7316 20.3699C32.7186 20.3663 32.7068 20.3628 32.6938 20.3581C32.6785 20.3533 32.6631 20.3489 32.6477 20.3445C32.6324 20.34 32.617 20.3356 32.6016 20.3309C30.8254 19.8097 28.9451 19.5296 26.9998 19.5296C25.2082 19.5296 23.4709 19.7672 21.8199 20.2115C21.6344 20.2612 21.4512 20.3132 21.268 20.3687L21.2643 20.37L21.2585 20.3717L21.2551 20.3726L21.2528 20.3733L21.2491 20.3746C20.3911 20.6334 19.5567 20.949 18.7519 21.3177C17.8833 21.7148 17.0477 22.1722 16.2512 22.6851L16.2476 22.6874C16.2459 22.6885 16.2441 22.6896 16.2424 22.6907L16.2391 22.6928L16.2373 22.6939L16.2337 22.6962L16.2321 22.6972L16.2309 22.698C16.228 22.6999 16.2251 22.7018 16.2224 22.7037L16.2211 22.7047C16.2134 22.7097 16.205 22.7151 16.1973 22.7202C16.1774 22.733 16.1573 22.7459 16.1377 22.7595C16.1105 22.7773 16.0822 22.7962 16.055 22.8139C16.0278 22.8316 16.0006 22.8494 15.9746 22.8671C15.9716 22.8691 15.9694 22.8711 15.9666 22.8724L15.9639 22.8739C15.9519 22.8818 15.9402 22.8898 15.9285 22.8978C15.9164 22.9061 15.9043 22.9143 15.8919 22.9226L15.8884 22.925L15.8848 22.9273C15.8803 22.9304 15.8758 22.9335 15.8712 22.9365C15.866 22.94 15.8608 22.9435 15.8556 22.9469C15.8395 22.9577 15.8235 22.9683 15.808 22.9793L15.7265 23.0361L15.6449 23.0928L15.5634 23.1495C15.5032 23.192 15.4442 23.2345 15.3852 23.277L15.3211 23.3233C15.1875 23.4202 15.054 23.5194 14.9228 23.6211C14.6463 23.8326 14.3768 24.0513 14.1121 24.277C13.8528 24.4982 13.5993 24.726 13.3517 24.9601C14.7907 26.3925 16.3952 29.0964 17.297 32.4492C18.2405 35.9566 18.4184 40.1862 16.825 44.4314C16.8684 44.4427 16.9119 44.4539 16.9555 44.4648H16.9567H16.9579C17.381 44.609 17.8218 44.7165 18.2756 44.7827C18.642 44.8371 19.0166 44.8654 19.3984 44.8654C19.6536 44.8654 19.9065 44.8524 20.1547 44.8276H20.1559C22.3647 44.609 24.2946 43.4425 25.5344 41.7407C25.545 41.7253 25.5568 41.71 25.5675 41.6946C25.605 41.6417 25.6425 41.5886 25.6791 41.5347C25.6831 41.5288 25.6916 41.5279 25.6969 41.5327C25.7018 41.5371 25.7094 41.5368 25.7138 41.5319C26.0315 41.1767 26.4948 40.9524 27.0093 40.9524C27.5212 40.9524 27.9809 41.1731 28.2985 41.5257C28.3031 41.5308 28.311 41.5311 28.316 41.5265C28.3215 41.5215 28.3309 41.5219 28.335 41.528C29.5672 43.3452 31.5655 44.6 33.8662 44.8276C34.1144 44.8524 34.3661 44.8643 34.6202 44.8643C35.0019 44.8643 35.3765 44.8359 35.7429 44.7815C36.2085 44.713 36.66 44.6007 37.0949 44.4518C37.1276 44.4435 37.1602 44.4351 37.1928 44.4265ZM16.5959 44.3689C13.4771 43.4863 10.8633 41.4015 9.28673 38.6467C8.99009 38.1752 8.74309 37.6693 8.55518 37.1352C8.00682 35.7631 7.84727 33.7008 8.76855 31.4908C8.97353 31.0191 9.19628 30.5568 9.43593 30.105L9.43741 30.1016L9.43888 30.0981C10.4212 28.2461 11.688 26.5691 13.1809 25.1236C14.5838 26.5178 16.1737 29.183 17.0688 32.5106C18.0036 35.986 18.177 40.1719 16.5959 44.3689ZM15.8825 20.9644C15.8836 20.9431 15.8836 20.923 15.8836 20.9017C15.8836 20.7032 15.8635 20.5105 15.8245 20.3238C15.7631 20.0165 15.652 19.7258 15.5007 19.4611C15.1864 18.7591 14.7692 18.1138 14.2669 17.5442C14.2634 17.5394 14.2598 17.5359 14.2563 17.5324C14.144 17.4047 14.027 17.2806 13.9053 17.1613C13.9028 17.1588 13.9004 17.1564 13.8979 17.154C13.8954 17.1516 13.8929 17.1491 13.8903 17.1467L13.8852 17.1418C13.8784 17.1353 13.8716 17.1288 13.8651 17.1223C13.6358 16.8977 12.9456 16.2548 11.9104 15.7431L11.9092 15.7425L11.9083 15.7419C11.8339 15.7053 11.7567 15.6686 11.6787 15.6332L11.6764 15.632C11.3301 15.4878 10.9507 15.4074 10.5525 15.4074C10.3244 15.4074 10.1022 15.4346 9.88827 15.4843C9.61882 15.5469 9.36355 15.6474 9.12955 15.7797C9.05627 15.8211 8.98418 15.866 8.91446 15.9133C8.85418 15.9605 8.79745 16.0149 8.74782 16.074C8.70173 16.1343 8.658 16.1981 8.61664 16.2631C8.33182 16.7122 8.16636 17.2452 8.16636 17.8172C8.16636 18.1906 8.23727 18.5487 8.36609 18.8773L8.36668 18.879L8.36727 18.8808C8.37023 18.8885 8.37348 18.8962 8.37673 18.9039C8.37998 18.9115 8.38323 18.9192 8.38618 18.9269L8.38683 18.9277L8.38736 18.9293C8.39089 18.9387 8.39443 18.9469 8.39796 18.9552C8.6355 19.5307 8.94282 20.0709 9.308 20.5649C9.44746 20.754 9.59518 20.9348 9.75118 21.1097C9.87291 21.2468 10.0005 21.3792 10.1329 21.5068C10.6848 22.041 11.3171 22.4924 12.0108 22.8411C12.0912 22.8813 12.1715 22.9191 12.2531 22.9569C12.3618 23.0077 12.4729 23.055 12.5852 23.0999H12.5864C12.7022 23.1377 12.8204 23.1684 12.9421 23.1909C13.1182 23.224 13.299 23.2417 13.4845 23.2417C14.2078 23.2417 14.9016 22.9561 15.3636 22.5326C15.5055 22.4026 15.7915 21.7609 15.8553 21.3083C15.8706 21.1948 15.8801 21.0802 15.8825 20.9644ZM45.9255 17.8526C45.9255 18.2793 45.8333 18.6846 45.669 19.0498C45.6465 19.0995 45.6229 19.1491 45.5969 19.1975C45.5958 19.2 45.5917 19.2095 45.5857 19.2234L45.5852 19.2246C45.5594 19.2841 45.5 19.4213 45.4811 19.4564C45.4782 19.4621 45.4751 19.4677 45.472 19.4733C45.4686 19.4793 45.4652 19.4851 45.4622 19.4906C45.4303 19.5509 45.3972 19.6112 45.3629 19.6703C45.3558 19.6833 45.3475 19.6963 45.3405 19.7093C45.3377 19.7141 45.3349 19.7189 45.3321 19.7236C45.3266 19.7329 45.3211 19.742 45.3156 19.7506C45.3003 19.7777 45.2839 19.8048 45.2674 19.8319C45.2036 19.937 45.1372 20.0414 45.0686 20.143C45.0638 20.1496 45.0593 20.1563 45.0548 20.163C45.0521 20.167 45.0495 20.171 45.0468 20.1752C45.045 20.1778 45.0433 20.1805 45.0415 20.1832C45.032 20.1974 45.0214 20.2115 45.0119 20.2257C45.0025 20.2399 44.9918 20.2541 44.9824 20.2683C44.9776 20.2754 44.9726 20.2822 44.9676 20.289C44.9626 20.2957 44.9576 20.3025 44.9528 20.3096C44.9481 20.3164 44.9432 20.3231 44.9384 20.3298C44.933 20.3373 44.9275 20.3447 44.9221 20.3522C44.9118 20.3664 44.9014 20.3805 44.8914 20.3947C44.6834 20.6772 44.4565 20.9455 44.2118 21.196C44.0759 21.3355 43.9353 21.469 43.7899 21.5978C43.1505 22.1615 42.4143 22.6189 41.6106 22.9427L41.6071 22.9398L41.6035 22.9368C41.5409 22.964 41.4771 22.99 41.4121 23.0125C41.3523 23.0306 41.294 23.0465 41.2331 23.063C41.1712 23.0798 41.1066 23.0974 41.0351 23.1188L41.0321 23.1198C41.0321 23.1198 41.0289 23.12 41.0269 23.12C40.8342 23.1602 40.6356 23.1815 40.4312 23.1815C39.8226 23.1815 39.2588 22.9947 38.792 22.6756C38.4682 22.2986 38.2389 21.8377 38.142 21.3307C38.1207 21.222 38.1065 21.1121 38.0983 20.9998C38.0924 20.9277 38.09 20.8568 38.09 20.7835C38.09 20.4704 38.1396 20.1678 38.2318 19.8854V19.8842C38.3098 19.6892 38.3961 19.4965 38.4906 19.3098V19.3086C38.8393 18.6149 39.2907 17.9826 39.8249 17.4307C39.9525 17.2984 40.0849 17.1707 40.222 17.049C40.8543 16.4841 41.5823 16.0232 42.3788 15.6946C42.3847 15.6923 42.3906 15.6899 42.3954 15.6875L42.3988 15.6862L42.4034 15.6844C42.4098 15.6819 42.4159 15.6794 42.4226 15.6769C42.4308 15.6734 42.4379 15.671 42.4462 15.6675L42.4474 15.6669L42.4485 15.6663C42.7783 15.5363 43.1364 15.4654 43.5122 15.4654C43.6765 15.4654 43.8372 15.4784 43.9932 15.5055C44.382 15.5705 44.7448 15.7124 45.0663 15.9156C45.1313 15.957 45.1951 16.0007 45.2554 16.0468C45.3145 16.0965 45.3688 16.1532 45.4161 16.2135C45.4634 16.2832 45.5083 16.3541 45.5496 16.4285V16.4297C45.7907 16.8505 45.9255 17.335 45.9255 17.8526ZM34.2065 17.5867C35.7358 16.1981 36.6954 14.1949 36.6954 11.9672C36.6954 11.2664 36.6009 10.5868 36.4213 9.94272C36.3149 9.55981 36.1802 9.18872 36.0183 8.83181C36.0041 8.7999 35.9887 8.76681 35.9734 8.7349C35.4534 7.9419 34.5575 7.41836 33.5388 7.41836C32.9585 7.41836 32.4173 7.58854 31.9635 7.88163C31.7779 8.02463 31.5983 8.1759 31.4257 8.33545L31.3832 8.37445C29.9095 9.75836 28.9888 11.7237 28.9888 13.9054C28.9888 14.7669 29.133 15.593 29.3965 16.3647C29.5384 16.7772 29.8362 17.2121 30.0253 17.452C30.4318 17.8999 30.9766 18.2214 31.5912 18.3478C31.7815 18.3868 31.9788 18.4081 32.1809 18.4081C32.8534 18.4081 33.4715 18.18 33.9643 17.7971C34.047 17.7285 34.1274 17.6588 34.2065 17.5867ZM24.8891 13.8581C24.8891 14.7645 24.7307 15.6344 24.4388 16.4404C24.4187 16.4959 24.3986 16.5503 24.3774 16.6046C24.2509 16.9131 24.0725 17.1955 23.8538 17.439C23.5371 17.7924 23.1365 18.0677 22.6826 18.2332C22.3718 18.3466 22.0374 18.4081 21.6875 18.4081C20.9985 18.4081 20.3663 18.1682 19.8675 17.7687C19.8049 17.7155 19.7423 17.6612 19.6808 17.6056L19.6796 17.6044C18.1468 16.2158 17.1836 14.2103 17.1836 11.979C17.1836 11.1115 17.329 10.2784 17.5973 9.5019C17.6445 9.36599 17.6954 9.23126 17.7497 9.09772L17.7509 9.09654C17.7864 9.0209 17.8242 8.94763 17.8655 8.87554C18.3678 8.00454 19.3085 7.41836 20.3864 7.41836C21.0056 7.41836 21.58 7.61217 22.0515 7.9419C22.1945 8.05654 22.3316 8.1759 22.4652 8.29999C22.472 8.30638 22.4788 8.31263 22.4855 8.31884C22.4986 8.33092 22.5119 8.34311 22.5243 8.35554C23.9815 9.73708 24.8891 11.6918 24.8891 13.8581ZM20.7282 28.0719C20.8757 28.0464 21.0365 28.0507 21.2059 28.1005C21.4234 28.1564 21.6166 28.273 21.7664 28.4312C21.7818 28.4451 21.7972 28.4595 21.8126 28.4743L21.8137 28.4753L21.8146 28.4765C22.097 28.8244 22.3007 29.239 22.3996 29.6918C22.4425 29.8954 22.4664 30.1052 22.4664 30.3208C22.4664 30.9699 22.2552 31.5696 21.8981 32.0554C21.8577 32.1173 21.8116 32.1752 21.7606 32.2284C21.731 32.2628 21.7007 32.2966 21.6696 32.3296L21.6677 32.3316L21.6654 32.3331C21.6172 32.3647 21.5665 32.3957 21.5136 32.4248C21.4318 32.4735 21.3436 32.5126 21.2506 32.5405C21.173 32.5659 21.0917 32.5844 21.0069 32.5931C20.7541 32.6188 20.473 32.5566 20.1691 32.3324L20.1673 32.3311L20.1659 32.3296C20.1558 32.3188 20.1457 32.308 20.1358 32.2971C20.0284 32.2026 19.9383 32.0887 19.8711 31.961C19.71 31.7226 19.5829 31.459 19.4975 31.1774C19.4224 30.9309 19.3784 30.6712 19.3712 30.402C19.37 30.3744 19.37 30.348 19.37 30.321C19.37 29.8671 19.4725 29.438 19.6571 29.0543C19.7282 28.9063 19.8112 28.7652 19.9051 28.6323C20.0377 28.4128 20.24 28.2401 20.4813 28.145C20.558 28.1126 20.6406 28.087 20.7282 28.0719ZM32.5936 28.0719C32.7411 28.0464 32.902 28.0507 33.0713 28.1005C33.2889 28.1564 33.4821 28.273 33.6318 28.4312C33.6472 28.4451 33.6626 28.4595 33.6781 28.4743L33.6792 28.4753L33.6801 28.4765C33.9625 28.8244 34.1662 29.239 34.2651 29.6918C34.3079 29.8954 34.3318 30.1052 34.3318 30.3208C34.3318 30.9699 34.1207 31.5696 33.7635 32.0554C33.7231 32.1173 33.677 32.1752 33.626 32.2284C33.5965 32.2628 33.5662 32.2966 33.5351 32.3296L33.5332 32.3316L33.5308 32.3331C33.4826 32.3647 33.432 32.3957 33.379 32.4248C33.2973 32.4735 33.2091 32.5126 33.1161 32.5405C33.0384 32.5659 32.9571 32.5844 32.8723 32.5931C32.6196 32.6188 32.3385 32.5566 32.0345 32.3324L32.0328 32.3311L32.0313 32.3296C32.025 32.3228 32.0186 32.316 32.0123 32.3092C32.0086 32.3051 32.0049 32.3011 32.0012 32.2971C31.8938 32.2026 31.8038 32.0887 31.7365 31.961C31.5754 31.7226 31.4483 31.459 31.3629 31.1774C31.2879 30.9309 31.2438 30.6712 31.2367 30.402C31.2355 30.3744 31.2355 30.348 31.2355 30.321C31.2355 29.8671 31.3379 29.438 31.5226 29.0543C31.5936 28.9063 31.6767 28.7652 31.7705 28.6323C31.9031 28.4128 32.1054 28.2401 32.3468 28.145C32.4234 28.1126 32.506 28.087 32.5936 28.0719ZM29.926 33.2649C29.9322 33.1865 29.9355 33.1072 29.9355 33.0272C29.9355 31.4085 28.6232 30.0963 27.0045 30.0963C25.3859 30.0963 24.0736 31.4085 24.0736 33.0272C24.0736 33.0795 24.075 33.1315 24.0777 33.1831C24.0617 34.0783 23.3678 34.8426 22.4939 34.8626C22.4456 34.8602 22.397 34.859 22.3482 34.859C20.7295 34.859 19.4173 36.1712 19.4173 37.7899C19.4173 39.4086 20.7295 40.7208 22.3482 40.7208C23.4109 40.7208 24.3416 40.1552 24.8555 39.3086C26.0414 38.0913 27.8968 38.0086 29.1563 39.3086C29.6731 40.1421 30.5963 40.6972 31.6491 40.6972C33.2678 40.6972 34.58 39.385 34.58 37.7663C34.58 36.1476 33.2678 34.8354 31.6491 34.8354C31.5652 34.8354 31.4821 34.8389 31.4 34.8458C30.5528 34.8043 29.963 33.9738 29.926 33.2649ZM29.3906 36.1224C29.3989 36.0538 29.4036 35.9829 29.4036 35.9108C29.4036 35.6934 29.3634 35.4842 29.2878 35.2927C29.0302 34.8838 28.6071 34.5896 28.1119 34.5056C27.9027 34.5127 27.7018 34.5565 27.5175 34.6321L27.4997 34.6392C27.4548 34.6581 27.4123 34.6782 27.3697 34.7006C27.3142 34.7302 27.2598 34.7621 27.2078 34.7976C27.2019 34.7993 27.196 34.8014 27.1901 34.8035C27.1843 34.8055 27.1782 34.8076 27.1724 34.8094C27.1192 34.8259 27.0625 34.8354 27.0034 34.8354C26.936 34.8354 26.8722 34.8236 26.8119 34.8023C26.8095 34.8017 26.8075 34.8008 26.8054 34.7999L26.802 34.7985L26.7989 34.7976C26.7469 34.7621 26.6925 34.7302 26.637 34.7006C26.5944 34.6782 26.5519 34.6581 26.507 34.6392L26.4893 34.6321C26.3392 34.5706 26.1784 34.5293 26.0106 34.5127C25.4516 34.5695 24.9706 34.8909 24.6964 35.3495C24.6374 35.5256 24.6043 35.7146 24.6043 35.9108C24.6043 35.9817 24.609 36.0526 24.6173 36.1224V36.1236C24.622 36.1578 24.6267 36.1897 24.6326 36.2228V36.224C24.6468 36.2819 24.6705 36.3363 24.7 36.3847V36.3859C24.7307 36.4249 24.7615 36.4639 24.7945 36.5017C25.2531 37.0383 25.9043 37.4058 26.6417 37.4968C26.7516 37.511 26.8627 37.5181 26.9762 37.5193H26.9951H27.0128H27.0317C27.1558 37.5181 27.2764 37.5098 27.3957 37.4933C28.1202 37.3952 28.7607 37.0312 29.2134 36.5017C29.2464 36.4639 29.2771 36.425 29.3078 36.386L29.3079 36.3847C29.3386 36.3351 29.3611 36.2819 29.3753 36.224V36.2228C29.3812 36.1897 29.3871 36.1566 29.3906 36.1236V36.1224Z" fill="#410075"/>
</svg>
