<svg width="26" height="27" viewBox="0 0 26 27" fill="none" xmlns="http://www.w3.org/2000/svg">
<path d="M26 13.5166C25.9959 16.6938 24.8302 19.7599 22.7224 22.1374C20.6145 24.5148 17.7101 26.0394 14.5562 26.4241C14.486 26.432 14.4149 26.425 14.3476 26.4035C14.2803 26.3819 14.2183 26.3463 14.1657 26.2991C14.1132 26.2519 14.0712 26.194 14.0427 26.1294C14.0141 26.0647 13.9996 25.9947 14 25.9241V16.5166H17C17.1371 16.5169 17.2728 16.489 17.3986 16.4346C17.5245 16.3803 17.6378 16.3006 17.7316 16.2007C17.8254 16.1007 17.8976 15.9825 17.9438 15.8534C17.9899 15.7243 18.0091 15.5871 18 15.4503C17.9779 15.1932 17.8593 14.9539 17.668 14.7807C17.4766 14.6075 17.2268 14.5131 16.9688 14.5166H14V11.5166C14 10.9861 14.2107 10.4774 14.5858 10.1024C14.9609 9.72728 15.4696 9.51657 16 9.51657H18C18.1371 9.51687 18.2728 9.48898 18.3986 9.43464C18.5245 9.38029 18.6378 9.30065 18.7316 9.20066C18.8254 9.10066 18.8976 8.98246 18.9438 8.85338C18.9899 8.7243 19.0091 8.58711 19 8.45032C18.9779 8.19274 18.8589 7.95313 18.667 7.77983C18.4752 7.60654 18.2247 7.51246 17.9662 7.51657H16C14.9391 7.51657 13.9217 7.938 13.1716 8.68814C12.4214 9.43829 12 10.4557 12 11.5166V14.5166H9C8.86291 14.5163 8.72723 14.5442 8.60137 14.5985C8.47552 14.6529 8.36218 14.7325 8.2684 14.8325C8.17462 14.9325 8.1024 15.0507 8.05623 15.1798C8.01006 15.3088 7.99092 15.446 8 15.5828C8.02212 15.8404 8.14111 16.08 8.33296 16.2533C8.52481 16.4266 8.77525 16.5207 9.03375 16.5166H12V25.9266C12.0004 25.9971 11.9859 26.067 11.9574 26.1315C11.9289 26.1961 11.8871 26.2539 11.8347 26.3011C11.7823 26.3483 11.7204 26.3839 11.6533 26.4055C11.5861 26.4272 11.5151 26.4343 11.445 26.4266C8.20669 26.0322 5.23445 24.4364 3.11659 21.9552C0.998731 19.4739 -0.110395 16.2879 0.00875044 13.0278C0.25875 6.27782 5.72625 0.79032 12.4812 0.52782C14.2301 0.460077 15.9747 0.745759 17.6106 1.36778C19.2465 1.98979 20.7401 2.93537 22.0022 4.14794C23.2642 5.36051 24.2688 6.81517 24.9557 8.42491C25.6426 10.0347 25.9978 11.7664 26 13.5166Z" fill="#595959"/>
</svg>
