<svg width="26" height="27" viewBox="0 0 26 27" fill="none" xmlns="http://www.w3.org/2000/svg">
<path d="M17 13.5166C17 14.3077 16.7654 15.0811 16.3259 15.7389C15.8864 16.3967 15.2616 16.9094 14.5307 17.2121C13.7998 17.5149 12.9956 17.5941 12.2196 17.4397C11.4437 17.2854 10.731 16.9044 10.1716 16.345C9.61216 15.7856 9.2312 15.0729 9.07686 14.297C8.92252 13.521 9.00173 12.7168 9.30448 11.9859C9.60723 11.255 10.1199 10.6302 10.7777 10.1907C11.4355 9.7512 12.2089 9.5166 13 9.5166C14.0609 9.5166 15.0783 9.93803 15.8284 10.6882C16.5786 11.4383 17 12.4557 17 13.5166ZM26 7.5166V19.5166C25.998 21.3725 25.2599 23.1518 23.9476 24.4642C22.6352 25.7765 20.8559 26.5146 19 26.5166H7C5.14409 26.5146 3.36477 25.7765 2.05245 24.4642C0.740121 23.1518 0.00198528 21.3725 0 19.5166V7.5166C0.00198528 5.6607 0.740121 3.88137 2.05245 2.56905C3.36477 1.25672 5.14409 0.518587 7 0.516602H19C20.8559 0.518587 22.6352 1.25672 23.9476 2.56905C25.2599 3.88137 25.998 5.6607 26 7.5166ZM19 13.5166C19 12.3299 18.6481 11.1699 17.9888 10.1832C17.3295 9.19648 16.3925 8.42745 15.2961 7.97332C14.1997 7.5192 12.9933 7.40038 11.8295 7.63189C10.6656 7.8634 9.59647 8.43485 8.75736 9.27396C7.91824 10.1131 7.3468 11.1822 7.11529 12.3461C6.88378 13.5099 7.0026 14.7163 7.45672 15.8127C7.91085 16.9091 8.67988 17.8461 9.66658 18.5054C10.6533 19.1647 11.8133 19.5166 13 19.5166C14.5908 19.5149 16.116 18.8823 17.2408 17.7574C18.3657 16.6326 18.9983 15.1074 19 13.5166ZM22 6.0166C22 5.71993 21.912 5.42992 21.7472 5.18325C21.5824 4.93657 21.3481 4.74431 21.074 4.63078C20.7999 4.51725 20.4983 4.48755 20.2074 4.54542C19.9164 4.6033 19.6491 4.74616 19.4393 4.95594C19.2296 5.16572 19.0867 5.43299 19.0288 5.72397C18.9709 6.01494 19.0007 6.31654 19.1142 6.59063C19.2277 6.86472 19.42 7.09898 19.6666 7.26381C19.9133 7.42863 20.2033 7.5166 20.5 7.5166C20.8978 7.5166 21.2794 7.35857 21.5607 7.07726C21.842 6.79596 22 6.41443 22 6.0166Z" fill="#595959"/>
</svg>
