<svg width="26" height="27" viewBox="0 0 26 27" fill="none" xmlns="http://www.w3.org/2000/svg">
<path d="M24 0.516602H2C1.46957 0.516602 0.960859 0.727315 0.585786 1.10239C0.210714 1.47746 0 1.98617 0 2.5166V24.5166C0 25.047 0.210714 25.5557 0.585786 25.9308C0.960859 26.3059 1.46957 26.5166 2 26.5166H24C24.5304 26.5166 25.0391 26.3059 25.4142 25.9308C25.7893 25.5557 26 25.047 26 24.5166V2.5166C26 1.98617 25.7893 1.47746 25.4142 1.10239C25.0391 0.727315 24.5304 0.516602 24 0.516602ZM9 19.5166C9 19.7818 8.89464 20.0362 8.70711 20.2237C8.51957 20.4112 8.26522 20.5166 8 20.5166C7.73478 20.5166 7.48043 20.4112 7.29289 20.2237C7.10536 20.0362 7 19.7818 7 19.5166V11.5166C7 11.2514 7.10536 10.997 7.29289 10.8095C7.48043 10.622 7.73478 10.5166 8 10.5166C8.26522 10.5166 8.51957 10.622 8.70711 10.8095C8.89464 10.997 9 11.2514 9 11.5166V19.5166ZM8 9.5166C7.70333 9.5166 7.41332 9.42863 7.16665 9.26381C6.91997 9.09898 6.72771 8.86472 6.61418 8.59063C6.50065 8.31654 6.47094 8.01494 6.52882 7.72397C6.5867 7.43299 6.72956 7.16572 6.93934 6.95594C7.14912 6.74616 7.41639 6.6033 7.70736 6.54542C7.99834 6.48755 8.29994 6.51725 8.57403 6.63078C8.84811 6.74431 9.08238 6.93657 9.2472 7.18325C9.41203 7.42992 9.5 7.71993 9.5 8.0166C9.5 8.41443 9.34196 8.79596 9.06066 9.07726C8.77936 9.35857 8.39782 9.5166 8 9.5166ZM20 19.5166C20 19.7818 19.8946 20.0362 19.7071 20.2237C19.5196 20.4112 19.2652 20.5166 19 20.5166C18.7348 20.5166 18.4804 20.4112 18.2929 20.2237C18.1054 20.0362 18 19.7818 18 19.5166V15.0166C18 14.3536 17.7366 13.7177 17.2678 13.2488C16.7989 12.78 16.163 12.5166 15.5 12.5166C14.837 12.5166 14.2011 12.78 13.7322 13.2488C13.2634 13.7177 13 14.3536 13 15.0166V19.5166C13 19.7818 12.8946 20.0362 12.7071 20.2237C12.5196 20.4112 12.2652 20.5166 12 20.5166C11.7348 20.5166 11.4804 20.4112 11.2929 20.2237C11.1054 20.0362 11 19.7818 11 19.5166V11.5166C11.0012 11.2717 11.0923 11.0357 11.256 10.8535C11.4197 10.6712 11.6446 10.5554 11.888 10.528C12.1314 10.5005 12.3764 10.5634 12.5765 10.7046C12.7767 10.8458 12.918 11.0556 12.9738 11.2941C13.6502 10.8352 14.4389 10.5692 15.2552 10.5248C16.0714 10.4803 16.8844 10.659 17.6067 11.0417C18.329 11.4244 18.9335 11.9966 19.3551 12.6969C19.7768 13.3972 19.9997 14.1992 20 15.0166V19.5166Z" fill="#595959"/>
</svg>
