<svg width="48" height="55" viewBox="0 0 48 55" fill="none" xmlns="http://www.w3.org/2000/svg">
<path fill-rule="evenodd" clip-rule="evenodd" d="M32.4846 33.8137C31.7992 36.3593 34.5613 39.3076 38.6539 40.399C42.7466 41.4903 46.6199 40.3114 47.3053 37.7658C47.9907 35.2202 45.2286 32.2719 41.1359 31.1806C37.0433 30.0892 33.17 31.2681 32.4846 33.8137ZM41.1359 23.0293C37.0433 24.1206 33.17 22.9417 32.4846 20.3961C31.7992 17.8506 34.5613 14.9022 38.6539 13.8109C42.7466 12.7196 46.6199 13.8985 47.3053 16.444C47.9907 18.9896 45.2286 21.9379 41.1359 23.0293ZM3.5002 29.6754C-8.07519 39.6507 15.6452 65.1689 28.8616 34.8874C30.9214 30.1678 30.9214 24.7702 28.8616 20.0506C15.6452 -10.2309 -8.07519 15.2874 3.5002 25.2627C4.66731 26.2684 4.66731 28.6696 3.5002 29.6754ZM31.9988 8.33738C29.602 10.7227 26.4446 11.4478 24.9466 9.95699C23.4486 8.46618 24.1773 5.324 26.5741 2.93872C28.9709 0.553438 32.1282 -0.171679 33.6262 1.31912C35.1242 2.80992 34.3956 5.95211 31.9988 8.33738ZM24.9466 45.1316C23.4486 46.6224 24.1772 49.7646 26.574 52.1498C28.9709 54.5351 32.1282 55.2602 33.6262 53.7694C35.1242 52.2786 34.3956 49.1365 31.9988 46.7512C29.602 44.3659 26.4446 43.6408 24.9466 45.1316Z" fill="#8F00FF" fill-opacity="0.1"/>
</svg>
