<svg width="197" height="396" viewBox="0 0 197 396" fill="none" xmlns="http://www.w3.org/2000/svg">
<path fill-rule="evenodd" clip-rule="evenodd" d="M196.683 116.616C213.355 99.9438 205.369 64.9272 178.845 38.4039C152.322 11.8805 117.305 3.89427 100.634 20.5661C83.9618 37.2379 91.948 72.2545 118.471 98.7779C144.995 125.301 180.011 133.287 196.683 116.616ZM99.2615 117.988C125.785 144.511 133.771 179.528 117.099 196.2C100.427 212.872 65.4108 204.885 38.8874 178.362C12.3641 151.839 4.37783 116.822 21.0497 100.15C37.7215 83.4785 72.7381 91.4647 99.2615 117.988ZM281.251 270.968C420.822 309.383 471.487 20.5025 196.759 152.854C177.219 162.267 161.379 178.108 151.965 197.648C19.6136 472.375 308.494 421.711 270.079 282.14C268.363 275.906 275.018 269.252 281.251 270.968ZM80.0515 241.48C104.301 265.73 111.673 297.675 96.5171 312.831C81.3609 327.988 49.4159 320.616 25.166 296.366C0.916094 272.116 -6.45583 240.171 8.70038 225.015C23.8566 209.858 55.8016 217.23 80.0515 241.48ZM313.315 96.0336C328.471 80.8774 321.099 48.9324 296.849 24.6825C272.599 0.432576 240.654 -6.93934 225.498 8.21687C210.342 23.3731 217.714 55.3181 241.964 79.568C266.214 103.818 298.159 111.19 313.315 96.0336Z" fill="#252525" fill-opacity="0.1"/>
</svg>
