<svg width="142" height="141" viewBox="0 0 142 141" fill="none" xmlns="http://www.w3.org/2000/svg">
<path fill-rule="evenodd" clip-rule="evenodd" d="M99.7404 70.1653C105.671 76.0961 118.128 73.2551 127.564 63.8196C136.999 54.3842 139.84 41.9274 133.909 35.9966C127.978 30.0657 115.521 32.9067 106.086 42.3422C96.6506 51.7776 93.8096 64.2344 99.7404 70.1653ZM99.2522 35.5084C89.8168 44.9439 77.36 47.7849 71.4291 41.854C65.4983 35.9232 68.3393 23.4664 77.7748 14.031C87.2102 4.59552 99.667 1.75449 105.598 7.68533C111.529 13.6162 108.688 26.073 99.2522 35.5084ZM44.831 100.25C31.1652 149.9 133.932 167.924 86.849 70.1924C83.5002 63.2411 77.8651 57.606 70.9138 54.2572C-26.8177 7.17453 -8.79425 109.941 40.8566 96.2752C43.0742 95.6648 45.4414 98.032 44.831 100.25ZM55.3211 28.6747C46.6944 37.3014 35.3303 39.9238 29.9386 34.5322C24.5469 29.1405 27.1694 17.7764 35.7961 9.1497C44.4228 0.523026 55.7869 -2.09947 61.1786 3.29221C66.5702 8.68388 63.9478 20.048 55.3211 28.6747ZM107.062 111.656C112.454 117.048 123.818 114.425 132.445 105.798C141.071 97.1717 143.694 85.8075 138.302 80.4159C132.911 75.0242 121.546 77.6467 112.92 86.2734C104.293 94.9 101.671 106.264 107.062 111.656Z" fill="#252525" fill-opacity="0.1"/>
</svg>
